<?xml version="1.0" encoding="utf-8"?>
<!-- Generator: Adobe Illustrator 24.1.1, SVG Export Plug-In . SVG Version: 6.00 Build 0)  -->
<svg version="1.1" id="Layer_1" xmlns:serif="http://www.serif.com/"
	 xmlns="http://www.w3.org/2000/svg" xmlns:xlink="http://www.w3.org/1999/xlink" x="0px" y="0px" viewBox="0 0 288 560"
	 style="enable-background:new 0 0 288 560;" xml:space="preserve">
<style type="text/css">
	.st0{fill:none;}
	.st1{fill-rule:evenodd;clip-rule:evenodd;fill:#FFBC42;}
	.st2{fill-rule:evenodd;clip-rule:evenodd;fill:#92673E;}
	.st3{fill-rule:evenodd;clip-rule:evenodd;fill:#C45024;}
	.st4{fill-rule:evenodd;clip-rule:evenodd;fill:#FF7642;}
	.st5{fill-rule:evenodd;clip-rule:evenodd;fill:#5EA014;}
	.st6{fill-rule:evenodd;clip-rule:evenodd;fill:#FFFFFF;}
	.st7{opacity:0.18;}
	.st8{fill-rule:evenodd;clip-rule:evenodd;}
</style>
<rect id="Artboard1" y="136" class="st0" width="288" height="288"/>
<g id="Artboard11" serif:id="Artboard1">
	<path class="st1" d="M32.6,321.4c8,32.7,28.9,59.2,112,59.5c68.1,0.2,106.6-22,113.9-62.3C182.1,304.8,106.8,305.6,32.6,321.4z"/>
	<ellipse class="st2" cx="144.6" cy="310.2" rx="126.3" ry="40.1"/>
	<path class="st3" d="M37.5,267.6c72,21.2,145,22.4,219,3.8c3.7,9.6,6.3,20.3,7.7,31.9c-79.3,21.4-157.6,20.1-234.7-4.3
		C31.4,288,33.9,277.4,37.5,267.6z"/>
	<path class="st4" d="M45.7,268.8c66.8,16.4,134.5,17.3,203,3c3.4,7.4,5.8,15.7,7.2,24.6c-73.6,16.5-146.1,15.5-217.6-3.3
		C40,284.6,42.3,276.4,45.7,268.8L45.7,268.8z"/>
	<path class="st4" d="M45.7,268.8c66.8,16.4,134.5,17.3,203,3c3.4,7.4,5.8,15.7,7.2,24.6c-73.6,16.5-146.1,15.5-217.6-3.3
		C40,284.6,42.3,276.4,45.7,268.8L45.7,268.8z"/>
	<path class="st3" d="M37.4,267.9c70.9,7,142.7,7.4,215.5,1.3c3.6,3.2,6.2,6.7,7.6,10.5c-78.1,7.1-155.1,6.6-231-1.4
		C31.4,274.6,33.8,271.1,37.4,267.9L37.4,267.9L37.4,267.9z"/>
	<path class="st5" d="M147.1,228.7l-93.2,10.4L39,249c0,0-8.6,17.1-10.7,24.8c-2,7.7,14.4,17,20.5,22c6.2,5,15.9-13.5,22-13.5
		c6,0,10.8-4.5,18.1-0.8c7.3,3.7,15.1,6.2,24.4,8.7c9.3,2.5,23.8-9,31.7-11.9c0.6-0.2,1.3-0.4,2.1-0.4L147.1,228.7L147.1,228.7z"/>
	<path class="st5" d="M145.3,228.7l93.2,10.4l14.9,10c0,0,8.6,17.1,10.7,24.8c2,7.7-14.4,17-20.6,22c-6.2,5-15.9-13.5-22-13.5
		c-6,0-10.8-4.5-18.1-0.8c-7.3,3.7-15.1,6.2-24.4,8.7c-9.3,2.5-23.8-9-31.7-11.9c-0.6-0.2-1.3-0.4-2.1-0.4L145.3,228.7L145.3,228.7z
		"/>
	<path class="st1" d="M38.7,249.4c7.7-40.8,27.8-73.9,107.5-74.2c65.3-0.3,102.3,27.4,109.4,77.7C182.3,270.1,110,269,38.7,249.4
		L38.7,249.4z"/>
	<path class="st6" d="M93.3,213.6c1.5,4.1,1.9,7.8,1,8.4c-1,0.5-2.9-2.4-4.4-6.5c-1.5-4.1-1.9-7.8-1-8.4
		C89.8,206.6,91.8,209.5,93.3,213.6z"/>
	<path class="st6" d="M116.8,211.5c3,2.7,4.9,5.6,4.3,6.7c-0.6,1-3.5-0.3-6.5-2.9c-3-2.7-4.9-5.6-4.3-6.7
		C110.9,207.5,113.9,208.8,116.8,211.5z"/>
	<path class="st6" d="M83.9,227.1c3,2.7,4.9,5.6,4.3,6.7c-0.6,1-3.5-0.3-6.5-2.9c-3-2.7-4.9-5.6-4.3-6.7
		C78,223.2,80.9,224.5,83.9,227.1z"/>
	<path class="st6" d="M103.1,237.2c3.6,0.6,6.5,2.1,6.3,3.4c-0.1,1.3-3.2,1.8-6.9,1.2c-3.6-0.6-6.5-2.1-6.3-3.4
		C96.4,237.1,99.4,236.6,103.1,237.2z"/>
	<path class="st6" d="M131.3,223.4c3.6,0.6,6.5,2.1,6.3,3.4c-0.1,1.3-3.2,1.8-6.9,1.2c-3.6-0.6-6.5-2.1-6.3-3.4
		C124.5,223.3,127.6,222.8,131.3,223.4z"/>
	<path class="st6" d="M131.9,198.1c3.6,0.6,6.5,2.1,6.3,3.4c-0.1,1.3-3.2,1.8-6.9,1.2c-3.6-0.6-6.5-2.1-6.3-3.4
		C125.2,198,128.3,197.5,131.9,198.1z"/>
	<path class="st6" d="M173.8,226.4c1.5-4.1,1.9-7.8,1-8.4c-1-0.5-2.9,2.4-4.4,6.5c-1.5,4.1-1.9,7.8-1,8.4
		C170.3,233.4,172.3,230.5,173.8,226.4z"/>
	<path class="st6" d="M136.5,243.3c1.5-4.1,1.9-7.8,1-8.4c-1-0.5-2.9,2.4-4.4,6.5c-1.5,4.1-1.9,7.8-1,8.4
		C133,250.3,135,247.4,136.5,243.3L136.5,243.3z"/>
	<path class="st6" d="M197.3,228.6c3-2.7,4.9-5.6,4.3-6.7c-0.6-1-3.5,0.3-6.5,2.9c-3,2.7-4.9,5.6-4.3,6.7
		C191.5,232.5,194.4,231.2,197.3,228.6L197.3,228.6z"/>
	<path class="st6" d="M146.9,222.5c2.4,3.4,5,5.4,5.8,4.6c0.8-0.8-0.5-4.3-3-7.6c-2.4-3.4-5-5.4-5.8-4.6
		C143.2,215.7,144.5,219.1,146.9,222.5z"/>
	<path class="st6" d="M164.4,212.9c3-2.7,4.9-5.6,4.3-6.7c-0.6-1-3.5,0.3-6.5,2.9c-3,2.7-4.9,5.6-4.3,6.7
		C158.5,216.9,161.4,215.5,164.4,212.9z"/>
	<path class="st6" d="M154.5,197.6c3-2.7,4.9-5.6,4.3-6.7c-0.6-1-3.5,0.3-6.5,2.9c-3,2.7-4.9,5.6-4.3,6.7
		C148.7,201.6,151.6,200.3,154.5,197.6z"/>
	<path class="st6" d="M183.6,202.8c3.6-0.6,6.5-2.1,6.3-3.4c-0.1-1.3-3.2-1.8-6.9-1.2c-3.6,0.6-6.5,2.1-6.3,3.4
		C176.9,202.9,180,203.4,183.6,202.8z"/>
	<path class="st6" d="M211.8,216.6c3.6-0.6,6.5-2.1,6.3-3.4c-0.1-1.3-3.2-1.8-6.9-1.2c-3.6,0.6-6.5,2.1-6.3,3.4
		C205.1,216.7,208.1,217.2,211.8,216.6z"/>
</g>
<g id="Artboard11_1_" serif:id="Artboard1" class="st7">
	<path class="st8" d="M33,321.6c8,32.7,28.9,59.2,112,59.5c68.1,0.2,106.6-22,113.9-62.3C182.5,305,107.2,305.9,33,321.6z"/>
	<ellipse class="st8" cx="145" cy="310.4" rx="126.3" ry="40.1"/>
	<path class="st8" d="M37.9,267.8c72,21.2,145,22.4,219,3.8c3.7,9.6,6.3,20.3,7.7,31.9C185.3,325,107.1,323.6,30,299.3
		C31.8,288.2,34.3,277.6,37.9,267.8z"/>
	<path class="st8" d="M46.1,269c66.8,16.4,134.5,17.3,203,3c3.4,7.4,5.8,15.7,7.2,24.6c-73.6,16.5-146.1,15.5-217.6-3.3
		C40.4,284.8,42.7,276.6,46.1,269L46.1,269z"/>
	<path class="st8" d="M46.1,269c66.8,16.4,134.5,17.3,203,3c3.4,7.4,5.8,15.7,7.2,24.6c-73.6,16.5-146.1,15.5-217.6-3.3
		C40.4,284.8,42.7,276.6,46.1,269L46.1,269z"/>
	<path class="st8" d="M37.8,268.1c70.9,7,142.7,7.4,215.5,1.3c3.6,3.2,6.2,6.7,7.6,10.5c-78.1,7.1-155.1,6.6-231-1.4
		C31.8,274.9,34.2,271.3,37.8,268.1L37.8,268.1L37.8,268.1z"/>
	<path class="st8" d="M147.5,228.9l-93.2,10.4l-14.9,10c0,0-8.6,17.1-10.7,24.8c-2,7.7,14.4,17,20.5,22c6.2,5,15.9-13.5,22-13.5
		c6,0,10.8-4.5,18.1-0.8c7.3,3.7,15.1,6.2,24.4,8.7c9.3,2.5,23.8-9,31.7-11.9c0.6-0.2,1.3-0.4,2.1-0.4L147.5,228.9L147.5,228.9z"/>
	<path class="st8" d="M145.7,228.9l93.2,10.4l14.9,10c0,0,8.6,17.1,10.7,24.8c2,7.7-14.4,17-20.6,22c-6.2,5-15.9-13.5-22-13.5
		c-6,0-10.8-4.5-18.1-0.8c-7.3,3.7-15.1,6.2-24.4,8.7c-9.3,2.5-23.8-9-31.7-11.9c-0.6-0.2-1.3-0.4-2.1-0.4L145.7,228.9L145.7,228.9z
		"/>
	<path class="st8" d="M39.1,249.6c7.7-40.8,27.8-73.9,107.5-74.2C211.9,175,248.9,202.8,256,253C182.7,270.4,110.4,269.3,39.1,249.6
		L39.1,249.6z"/>
	<path class="st8" d="M93.7,213.8c1.5,4.1,1.9,7.8,1,8.4c-1,0.5-2.9-2.4-4.4-6.5c-1.5-4.1-1.9-7.8-1-8.4
		C90.2,206.8,92.2,209.7,93.7,213.8z"/>
	<path class="st8" d="M117.2,211.7c3,2.7,4.9,5.6,4.3,6.7c-0.6,1-3.5-0.3-6.5-2.9c-3-2.7-4.9-5.6-4.3-6.7
		C111.3,207.7,114.2,209,117.2,211.7z"/>
	<path class="st8" d="M84.3,227.4c3,2.7,4.9,5.6,4.3,6.7c-0.6,1-3.5-0.3-6.5-2.9c-3-2.7-4.9-5.6-4.3-6.7
		C78.4,223.4,81.3,224.7,84.3,227.4z"/>
	<path class="st8" d="M103.5,237.4c3.6,0.6,6.5,2.1,6.3,3.4c-0.1,1.3-3.2,1.8-6.9,1.2c-3.6-0.6-6.5-2.1-6.3-3.4
		C96.8,237.3,99.8,236.8,103.5,237.4z"/>
	<path class="st8" d="M131.7,223.6c3.6,0.6,6.5,2.1,6.3,3.4c-0.1,1.3-3.2,1.8-6.9,1.2c-3.6-0.6-6.5-2.1-6.3-3.4
		C124.9,223.6,128,223,131.7,223.6z"/>
	<path class="st8" d="M132.3,198.3c3.6,0.6,6.5,2.1,6.3,3.4c-0.1,1.3-3.2,1.8-6.9,1.2c-3.6-0.6-6.5-2.1-6.3-3.4
		C125.6,198.2,128.7,197.7,132.3,198.3z"/>
	<path class="st8" d="M174.2,226.6c1.5-4.1,1.9-7.8,1-8.4c-1-0.5-2.9,2.4-4.4,6.5c-1.5,4.1-1.9,7.8-1,8.4
		C170.7,233.6,172.7,230.7,174.2,226.6z"/>
	<path class="st8" d="M136.9,243.5c1.5-4.1,1.9-7.8,1-8.4c-1-0.5-2.9,2.4-4.4,6.5c-1.5,4.1-1.9,7.8-1,8.4
		C133.4,250.5,135.4,247.6,136.9,243.5L136.9,243.5z"/>
	<path class="st8" d="M197.7,228.8c3-2.7,4.9-5.6,4.3-6.7c-0.6-1-3.5,0.3-6.5,2.9c-3,2.7-4.9,5.6-4.3,6.7
		C191.9,232.8,194.8,231.4,197.7,228.8L197.7,228.8z"/>
	<path class="st8" d="M147.3,222.7c2.4,3.4,5,5.4,5.8,4.6c0.8-0.8-0.5-4.3-3-7.6c-2.4-3.4-5-5.4-5.8-4.6
		C143.6,215.9,144.9,219.3,147.3,222.7z"/>
	<path class="st8" d="M164.8,213.1c3-2.7,4.9-5.6,4.3-6.7c-0.6-1-3.5,0.3-6.5,2.9c-3,2.7-4.9,5.6-4.3,6.7
		C158.9,217.1,161.8,215.7,164.8,213.1z"/>
	<path class="st8" d="M154.9,197.9c3-2.7,4.9-5.6,4.3-6.7c-0.6-1-3.5,0.3-6.5,2.9c-3,2.7-4.9,5.6-4.3,6.7
		C149.1,201.8,152,200.5,154.9,197.9z"/>
	<path class="st8" d="M184,203c3.6-0.6,6.5-2.1,6.3-3.4c-0.1-1.3-3.2-1.8-6.9-1.2c-3.6,0.6-6.5,2.1-6.3,3.4
		C177.3,203.1,180.3,203.7,184,203z"/>
	<path class="st8" d="M212.2,216.8c3.6-0.6,6.5-2.1,6.3-3.4c-0.1-1.3-3.2-1.8-6.9-1.2c-3.6,0.6-6.5,2.1-6.3,3.4
		C205.5,216.9,208.5,217.4,212.2,216.8z"/>
</g>
</svg>
